<svg xmlns="http://www.w3.org/2000/svg" viewBox="0 0 720 2600" width="720" height="2600" preserveAspectRatio="none"><path d="M360 0C90 360 660 700 300 1080S60 1760 420 2100S700 2450 330 2600" fill="none" stroke="#c8d6f0" stroke-opacity=".25" stroke-width="3" stroke-dasharray="30 20"/><path d="M360 0C90 360 660 700 300 1080S60 1760 420 2100S700 2450 330 2600" fill="none" stroke="#c8d6f0" stroke-opacity=".10" stroke-width="13"/><path d="M360 -17l17 17-17 17-17-17z" fill="none" stroke="#c8d6f0" stroke-opacity=".55" stroke-width="2.6"/><path d="M300 1063l17 17-17 17-17-17z" fill="none" stroke="#c8d6f0" stroke-opacity=".55" stroke-width="2.6"/><path d="M420 2083l17 17-17 17-17-17z" fill="none" stroke="#c8d6f0" stroke-opacity=".55" stroke-width="2.6"/><path d="M330 2583l17 17-17 17-17-17z" fill="none" stroke="#c8d6f0" stroke-opacity=".55" stroke-width="2.6"/></svg>