<svg xmlns="http://www.w3.org/2000/svg" viewBox="0 0 1700 1700" width="1700" height="1700"><defs><g id="k"><path d="M-77.6 10.9L348 -60.1L356.1 509.5L-84.4 510.6Z" fill="rgba(203,212,232,.026)"/><path d="M-84.4 510.6L356.1 509.5L499.7 904.1L83.2 777.6Z" fill="rgba(212,210,182,.032)"/><path d="M83.2 777.6L499.7 904.1L404.6 1240.6L23.2 1244.5Z" fill="rgba(180,204,190,.028)"/><path d="M23.2 1244.5L404.6 1240.6L348 1639.9L-77.6 1710.9Z" fill="rgba(196,200,214,.020)"/><path d="M348 -60.1L893.3 46.2L880.7 452.1L356.1 509.5Z" fill="rgba(196,200,214,.020)"/><path d="M356.1 509.5L880.7 452.1L926.1 928.2L499.7 904.1Z" fill="rgba(203,212,232,.026)"/><path d="M499.7 904.1L926.1 928.2L939.8 1356.7L404.6 1240.6Z" fill="rgba(212,210,182,.032)"/><path d="M404.6 1240.6L939.8 1356.7L893.3 1746.2L348 1639.9Z" fill="rgba(180,204,190,.028)"/><path d="M893.3 46.2L1321.8 -62.4L1323.1 363.9L880.7 452.1Z" fill="rgba(180,204,190,.028)"/><path d="M880.7 452.1L1323.1 363.9L1357.1 903.4L926.1 928.2Z" fill="rgba(196,200,214,.020)"/><path d="M926.1 928.2L1357.1 903.4L1260.4 1292.5L939.8 1356.7Z" fill="rgba(203,212,232,.026)"/><path d="M939.8 1356.7L1260.4 1292.5L1321.8 1637.6L893.3 1746.2Z" fill="rgba(212,210,182,.032)"/><path d="M1321.8 -62.4L1622.4 10.9L1615.6 510.6L1323.1 363.9Z" fill="rgba(212,210,182,.032)"/><path d="M1323.1 363.9L1615.6 510.6L1783.2 777.6L1357.1 903.4Z" fill="rgba(180,204,190,.028)"/><path d="M1357.1 903.4L1783.2 777.6L1723.2 1244.5L1260.4 1292.5Z" fill="rgba(196,200,214,.020)"/><path d="M1260.4 1292.5L1723.2 1244.5L1622.4 1710.9L1321.8 1637.6Z" fill="rgba(203,212,232,.026)"/><path d="M-77.6 10.9L45.7 -22.4L66.4 -27.3L87.3 -31.9L108.4 -36.1L129.6 -39.8L151 -43.2L172.5 -46.1L194.1 -48.6L215.9 -50.8L237.9 -52.5L348 -60.1" fill="none" stroke="rgba(158,196,168,.26)" stroke-width="2.4" stroke-linecap="round"/><path d="M-77.6 10.9L-77.1 155L-77.1 179.3L-77.2 203.7L-77.4 228.4L-77.7 253.3L-78.1 278.4L-78.6 303.7L-79.1 329.2L-79.8 354.8L-80.5 380.7L-84.4 510.6" fill="none" stroke="rgba(158,196,168,.26)" stroke-width="2.4" stroke-linecap="round"/><path d="M-84.4 510.6L40.4 514.1L61.6 514.5L83 514.8L104.6 514.9L126.5 514.9L148.7 514.8L171.1 514.6L193.7 514.2L216.6 513.7L239.8 513L356.1 509.5" fill="none" stroke="rgba(158,196,168,.26)" stroke-width="2.4" stroke-linecap="round"/><path d="M-84.4 510.6L-28.9 602.4L-19.9 617.1L-11.1 631.4L-2.5 645.4L6 658.9L14.3 672.1L22.4 684.8L30.4 697.2L38.1 709.1L45.7 720.7L83.2 777.6" fill="none" stroke="rgba(158,196,168,.26)" stroke-width="2.4" stroke-linecap="round"/><path d="M83.2 777.6L202.8 825.3L223 832.8L243.4 839.9L263.9 846.7L284.7 853.2L305.6 859.4L326.7 865.2L347.9 870.7L369.4 875.9L391 880.7L499.7 904.1" fill="none" stroke="rgba(158,196,168,.26)" stroke-width="2.4" stroke-linecap="round"/><path d="M83.2 777.6L78.9 914.9L77.5 937.9L75.6 961L73.3 984.2L70.6 1007.5L67.3 1030.9L63.6 1054.4L59.5 1078L54.9 1101.7L49.8 1125.4L23.2 1244.5" fill="none" stroke="rgba(158,196,168,.26)" stroke-width="2.4" stroke-linecap="round"/><path d="M23.2 1244.5L124.5 1225.3L142 1223L160 1221.3L178.4 1220.2L197.2 1219.7L216.5 1219.8L236.2 1220.5L256.4 1221.8L277.1 1223.8L298.1 1226.3L404.6 1240.6" fill="none" stroke="rgba(158,196,168,.26)" stroke-width="2.4" stroke-linecap="round"/><path d="M23.2 1244.5L8.9 1393.3L5.8 1417.6L2.1 1441.7L-2.2 1465.5L-6.9 1488.9L-12.3 1512.1L-18.1 1535L-24.5 1557.5L-31.4 1579.8L-38.9 1601.8L-77.6 1710.9" fill="none" stroke="rgba(158,196,168,.26)" stroke-width="2.4" stroke-linecap="round"/><path d="M348 -60.1L494.4 -39L519.7 -35L545.5 -30.6L571.9 -25.8L598.8 -20.7L626.4 -15.2L654.5 -9.4L683.2 -3.1L712.5 3.5L742.4 10.4L893.3 46.2" fill="none" stroke="rgba(158,196,168,.26)" stroke-width="2.4" stroke-linecap="round"/><path d="M348 -60.1L359.6 91.5L361.1 117.7L362.3 144.5L363.2 172L363.7 200.2L364 229L363.9 258.5L363.5 288.6L362.9 319.3L361.9 350.8L356.1 509.5" fill="none" stroke="rgba(158,196,168,.26)" stroke-width="2.4" stroke-linecap="round"/><path d="M356.1 509.5L504.3 480.9L529.4 476.6L554.9 472.8L580.6 469.3L606.7 466.3L633.1 463.6L659.8 461.3L686.8 459.4L714.1 457.9L741.8 456.8L880.7 452.1" fill="none" stroke="rgba(158,196,168,.26)" stroke-width="2.4" stroke-linecap="round"/><path d="M356.1 509.5L411.8 617.7L420.5 636.3L428.8 655.1L436.6 674.3L444 693.9L450.9 713.8L457.5 734L463.6 754.6L469.3 775.5L474.5 796.8L499.7 904.1" fill="none" stroke="rgba(158,196,168,.26)" stroke-width="2.4" stroke-linecap="round"/><path d="M499.7 904.1L645.4 897L668.8 896.5L691.6 896.4L713.8 896.9L735.5 897.9L756.5 899.3L776.9 901.3L796.7 903.7L815.9 906.6L834.6 910L926.1 928.2" fill="none" stroke="rgba(158,196,168,.26)" stroke-width="2.4" stroke-linecap="round"/><path d="M499.7 904.1L480 1009.3L476.3 1026.6L472.3 1043.8L468 1060.8L463.4 1077.7L458.5 1094.5L453.3 1111.1L447.8 1127.5L442 1143.9L435.9 1160.1L404.6 1240.6" fill="none" stroke="rgba(158,196,168,.26)" stroke-width="2.4" stroke-linecap="round"/><path d="M404.6 1240.6L554.3 1259.2L579.7 1263L605.6 1267.5L631.8 1272.4L658.3 1278L685.3 1284.1L712.6 1290.7L740.3 1297.9L768.3 1305.6L796.7 1313.9L939.8 1356.7" fill="none" stroke="rgba(158,196,168,.26)" stroke-width="2.4" stroke-linecap="round"/><path d="M404.6 1240.6L369 1363.9L364 1384.2L359.5 1404.5L355.8 1424.6L352.6 1444.7L350.1 1464.6L348.2 1484.4L347 1504L346.4 1523.6L346.4 1543L348 1639.9" fill="none" stroke="rgba(158,196,168,.26)" stroke-width="2.4" stroke-linecap="round"/><path d="M893.3 46.2L1014.9 21.5L1035.5 17.1L1056.3 12.3L1077.4 7.3L1098.7 2L1120.2 -3.6L1142 -9.4L1164 -15.5L1186.3 -21.9L1208.8 -28.5L1321.8 -62.4" fill="none" stroke="rgba(158,196,168,.26)" stroke-width="2.4" stroke-linecap="round"/><path d="M893.3 46.2L871.4 167.7L868.6 187.9L866.5 208.2L864.9 228.5L864 248.8L863.7 269.1L864 289.4L864.9 309.7L866.4 330L868.5 350.4L880.7 452.1" fill="none" stroke="rgba(158,196,168,.26)" stroke-width="2.4" stroke-linecap="round"/><path d="M880.7 452.1L1009.5 428.2L1031.1 424L1052.9 419.8L1074.8 415.6L1096.9 411.2L1119.1 406.7L1141.4 402.2L1163.8 397.6L1186.4 392.9L1209.2 388.1L1323.1 363.9" fill="none" stroke="rgba(158,196,168,.26)" stroke-width="2.4" stroke-linecap="round"/><path d="M880.7 452.1L885.8 584.4L887.1 607L888.6 629.9L890.5 653.1L892.6 676.8L895 700.8L897.7 725.1L900.7 749.8L904 774.8L907.6 800.3L926.1 928.2" fill="none" stroke="rgba(158,196,168,.26)" stroke-width="2.4" stroke-linecap="round"/><path d="M926.1 928.2L1054.7 935.6L1076.2 936.2L1097.7 936.2L1119.2 935.7L1140.7 934.7L1162.3 933.2L1183.9 931.2L1205.5 928.7L1227.1 925.7L1248.8 922.2L1357.1 903.4" fill="none" stroke="rgba(158,196,168,.26)" stroke-width="2.4" stroke-linecap="round"/><path d="M926.1 928.2L941.1 1051.8L943.1 1072.6L944.7 1093.6L946 1114.8L946.8 1136.2L947.3 1157.7L947.5 1179.3L947.2 1201.2L946.6 1223.2L945.6 1245.4L939.8 1356.7" fill="none" stroke="rgba(158,196,168,.26)" stroke-width="2.4" stroke-linecap="round"/><path d="M939.8 1356.7L1039.1 1329.1L1055.5 1324.9L1071.8 1321L1088 1317.4L1104.1 1314L1120 1311L1135.9 1308.2L1151.7 1305.7L1167.3 1303.5L1182.9 1301.5L1260.4 1292.5" fill="none" stroke="rgba(158,196,168,.26)" stroke-width="2.4" stroke-linecap="round"/><path d="M939.8 1356.7L944.9 1472.3L944.8 1491.6L944.1 1511L942.7 1530.4L940.7 1549.9L938.1 1569.4L934.8 1588.9L930.9 1608.5L926.3 1628.1L921 1647.7L893.3 1746.2" fill="none" stroke="rgba(158,196,168,.26)" stroke-width="2.4" stroke-linecap="round"/><path d="M1321.8 -62.4L1399.4 -56.1L1412.9 -54.3L1426.9 -51.9L1441.3 -49L1456.1 -45.7L1471.3 -41.7L1487 -37.3L1503.1 -32.3L1519.6 -26.7L1536.6 -20.7L1622.4 10.9" fill="none" stroke="rgba(158,196,168,.26)" stroke-width="2.4" stroke-linecap="round"/><path d="M1321.8 -62.4L1335 72.1L1336.6 94.2L1337.7 116.1L1338.5 137.7L1338.7 159.2L1338.6 180.4L1338 201.3L1337 222.1L1335.5 242.6L1333.6 262.9L1323.1 363.9" fill="none" stroke="rgba(158,196,168,.26)" stroke-width="2.4" stroke-linecap="round"/><path d="M1323.1 363.9L1392 403.6L1404.4 410.4L1417.4 417.4L1431.1 424.5L1445.4 431.8L1460.3 439.2L1475.9 446.7L1492.1 454.4L1509 462.3L1526.5 470.3L1615.6 510.6" fill="none" stroke="rgba(158,196,168,.26)" stroke-width="2.4" stroke-linecap="round"/><path d="M1323.1 363.9L1339.8 538.6L1342.3 567.1L1344.5 595.2L1346.6 622.8L1348.4 650L1350 676.8L1351.3 703.1L1352.5 729L1353.4 754.4L1354.1 779.4L1357.1 903.4" fill="none" stroke="rgba(158,196,168,.26)" stroke-width="2.4" stroke-linecap="round"/><path d="M1357.1 903.4L1470.5 865.7L1490 859.4L1510.1 853.1L1530.7 846.8L1551.8 840.5L1573.3 834.2L1595.3 827.9L1617.9 821.6L1640.9 815.3L1664.4 809L1783.2 777.6" fill="none" stroke="rgba(158,196,168,.26)" stroke-width="2.4" stroke-linecap="round"/><path d="M1357.1 903.4L1337.8 1012.8L1334.2 1031.4L1330.2 1050.3L1325.8 1069.4L1321.1 1088.7L1316.1 1108.3L1310.8 1128.1L1305.1 1148.2L1299.1 1168.5L1292.8 1189.1L1260.4 1292.5" fill="none" stroke="rgba(158,196,168,.26)" stroke-width="2.4" stroke-linecap="round"/><path d="M1260.4 1292.5L1384.1 1286.4L1405.4 1285L1427.3 1283.3L1449.6 1281.3L1472.5 1279.1L1495.9 1276.5L1519.8 1273.7L1544.3 1270.6L1569.2 1267.2L1594.7 1263.6L1723.2 1244.5" fill="none" stroke="rgba(158,196,168,.26)" stroke-width="2.4" stroke-linecap="round"/><path d="M1260.4 1292.5L1266.2 1395.4L1267.8 1412.5L1269.8 1429.7L1272.2 1447L1275 1464.2L1278.3 1481.5L1282 1498.8L1286.2 1516.1L1290.8 1533.4L1295.7 1550.8L1321.8 1637.6" fill="none" stroke="rgba(158,196,168,.26)" stroke-width="2.4" stroke-linecap="round"/><path d="M-77.6 10.9L159.1 282.8L179.2 305.2L199.6 327.5L220.3 349.6L241.3 371.5L262.6 393.2L284.1 414.8L305.9 436.3L328 457.5L350.4 478.6L373.1 499.5L396.1 520.3L419.3 540.9L442.8 561.3L466.6 581.6L490.7 601.7L515.1 621.7L539.7 641.4L564.6 661L589.8 680.5L615.3 699.8L641.1 718.9L666.8 737.8L691.9 756.7L716.6 775.5L740.8 794.1L764.6 812.6L787.8 831L810.5 849.3L832.8 867.5L854.6 885.6L875.9 903.6L896.7 921.4L917 939.1L936.8 956.8L956.1 974.3L975 991.7L993.3 1009L1011.2 1026.2L1028.6 1043.2L1045.5 1060.2L1061.9 1077L1077.8 1093.7L1093.3 1110.4L1108.5 1127L1123.8 1143.7L1139.1 1160.5L1154.5 1177.5L1169.9 1194.5L1185.4 1211.7L1201 1229L1216.6 1246.4L1232.3 1263.9L1248 1281.5L1263.8 1299.3L1279.7 1317.1L1295.6 1335.1L1311.6 1353.1L1327.6 1371.3L1343.7 1389.6L1359.8 1408L1376 1426.5L1392.3 1445.2L1408.6 1463.9L1424.9 1482.7L1441.4 1501.7L1622.4 1710.9" fill="none" stroke="rgba(223,213,190,.085)" stroke-width="30" stroke-linecap="round"/><path d="M-89 20.7L147.8 292.7L168.1 315.3L188.6 337.7L209.4 359.9L230.5 381.9L251.9 403.8L273.5 425.5L295.5 447L317.7 468.4L340.2 489.6L363 510.6L386.1 531.5L409.4 552.2L433 572.7L456.9 593.1L481.1 613.3L505.6 633.3L530.4 653.2L555.4 672.9L580.7 692.4L606.3 711.8L632.2 730.9L657.8 749.9L682.9 768.7L707.5 787.4L731.7 805.9L755.3 824.4L778.4 842.7L801.1 861L823.3 879.1L844.9 897.1L866.1 915L886.8 932.7L907 950.4L926.8 967.9L946 985.4L964.7 1002.7L983 1019.8L1000.7 1036.9L1018 1053.9L1034.8 1070.7L1051.1 1087.4L1066.9 1104L1082.2 1120.5L1097.4 1137.1L1112.7 1153.8L1128 1170.6L1143.4 1187.6L1158.8 1204.6L1174.3 1221.8L1189.9 1239L1205.5 1256.4L1221.1 1273.9L1236.9 1291.5L1252.6 1309.2L1268.5 1327.1L1284.4 1345L1300.3 1363.1L1316.3 1381.2L1332.4 1399.5L1348.5 1417.9L1364.7 1436.4L1381 1455L1397.3 1473.7L1413.6 1492.6L1430 1511.5L1611 1720.7" fill="none" stroke="rgba(158,196,168,.30)" stroke-width="2.2"/><path d="M-66.3 1L170.4 272.9L190.3 295.1L210.6 317.3L231.2 339.2L252.1 361L273.2 382.7L294.7 404.2L316.4 425.5L338.4 446.6L360.7 467.6L383.2 488.5L406.1 509.1L429.2 529.6L452.6 550L476.3 570.1L500.3 590.2L524.5 610L549 629.7L573.8 649.2L598.9 668.6L624.3 687.8L650 706.8L675.7 725.8L701 744.7L725.8 763.5L750 782.2L773.8 800.8L797.2 819.3L820 837.7L842.3 855.9L864.2 874.1L885.6 892.1L906.5 910.1L926.9 927.9L946.8 945.6L966.2 963.2L985.2 980.7L1003.7 998.1L1021.6 1015.4L1039.1 1032.6L1056.2 1049.6L1072.7 1066.6L1088.7 1083.5L1104.3 1100.2L1119.5 1116.8L1134.8 1133.6L1150.2 1150.4L1165.6 1167.4L1181.1 1184.5L1196.6 1201.7L1212.2 1219L1227.8 1236.4L1243.5 1253.9L1259.2 1271.6L1275 1289.3L1290.9 1307.2L1306.8 1325.1L1322.8 1343.2L1338.9 1361.4L1354.9 1379.7L1371.1 1398.1L1387.3 1416.7L1403.6 1435.3L1419.9 1454L1436.3 1472.9L1452.7 1491.9L1633.7 1701.1" fill="none" stroke="rgba(158,196,168,.30)" stroke-width="2.2"/><path d="M83.2 777.6L310.3 928.2L329.1 940.4L347.6 952.2L366.1 963.7L384.4 974.9L402.6 985.9L420.6 996.5L438.5 1006.9L456.3 1016.9L473.9 1026.6L491.4 1036.1L508.8 1045.2L526 1054.1L543 1062.6L560 1070.9L576.8 1078.9L593.5 1086.5L610 1093.9L626.4 1101L642.6 1107.7L658.8 1114.2L674.7 1120.4L690.8 1126.1L707.2 1131.2L723.9 1135.7L741 1139.6L758.4 1142.9L776.1 1145.5L794.1 1147.6L812.4 1149L831.1 1149.9L850.1 1150.1L869.4 1149.7L889.1 1148.7L909 1147.1L929.3 1144.9L950 1142L970.9 1138.6L992.2 1134.5L1013.8 1129.8L1035.7 1124.6L1058 1118.7L1080.5 1112.2L1103.4 1105L1126.4 1097.5L1149.2 1089.9L1171.9 1082L1194.4 1074L1216.7 1065.8L1238.8 1057.4L1260.8 1048.9L1282.6 1040.2L1304.2 1031.3L1325.7 1022.3L1347 1013.1L1368.1 1003.7L1389.1 994.1L1409.9 984.4L1430.5 974.5L1451 964.5L1471.2 954.2L1491.4 943.8L1511.3 933.2L1531.1 922.5L1550.7 911.6L1570.2 900.5L1783.2 777.6" fill="none" stroke="rgba(146,186,226,.19)" stroke-width="22" stroke-linecap="round"/><ellipse cx="952" cy="340" rx="300" ry="205" fill="rgba(158,196,168,.045)" stroke="rgba(158,196,168,.22)" stroke-width="2" stroke-dasharray="13 10"/><circle cx="952" cy="160" r="11.5" fill="rgba(158,196,168,.055)" stroke="rgba(158,196,168,.30)" stroke-width="1.4"/><circle cx="727" cy="238" r="11.5" fill="rgba(158,196,168,.055)" stroke="rgba(158,196,168,.30)" stroke-width="1.4"/><circle cx="817" cy="238" r="11.5" fill="rgba(158,196,168,.055)" stroke="rgba(158,196,168,.30)" stroke-width="1.4"/><circle cx="907" cy="238" r="11.5" fill="rgba(158,196,168,.055)" stroke="rgba(158,196,168,.30)" stroke-width="1.4"/><circle cx="997" cy="238" r="11.5" fill="rgba(158,196,168,.055)" stroke="rgba(158,196,168,.30)" stroke-width="1.4"/><circle cx="1087" cy="238" r="11.5" fill="rgba(158,196,168,.055)" stroke="rgba(158,196,168,.30)" stroke-width="1.4"/><circle cx="1177" cy="238" r="11.5" fill="rgba(158,196,168,.055)" stroke="rgba(158,196,168,.30)" stroke-width="1.4"/><circle cx="682" cy="316" r="11.5" fill="rgba(158,196,168,.055)" stroke="rgba(158,196,168,.30)" stroke-width="1.4"/><circle cx="772" cy="316" r="11.5" fill="rgba(158,196,168,.055)" stroke="rgba(158,196,168,.30)" stroke-width="1.4"/><circle cx="862" cy="316" r="11.5" fill="rgba(158,196,168,.055)" stroke="rgba(158,196,168,.30)" stroke-width="1.4"/><circle cx="952" cy="316" r="11.5" fill="rgba(158,196,168,.055)" stroke="rgba(158,196,168,.30)" stroke-width="1.4"/><circle cx="1042" cy="316" r="11.5" fill="rgba(158,196,168,.055)" stroke="rgba(158,196,168,.30)" stroke-width="1.4"/><circle cx="1132" cy="316" r="11.5" fill="rgba(158,196,168,.055)" stroke="rgba(158,196,168,.30)" stroke-width="1.4"/><circle cx="727" cy="394" r="11.5" fill="rgba(158,196,168,.055)" stroke="rgba(158,196,168,.30)" stroke-width="1.4"/><circle cx="817" cy="394" r="11.5" fill="rgba(158,196,168,.055)" stroke="rgba(158,196,168,.30)" stroke-width="1.4"/><circle cx="907" cy="394" r="11.5" fill="rgba(158,196,168,.055)" stroke="rgba(158,196,168,.30)" stroke-width="1.4"/><circle cx="997" cy="394" r="11.5" fill="rgba(158,196,168,.055)" stroke="rgba(158,196,168,.30)" stroke-width="1.4"/><circle cx="1087" cy="394" r="11.5" fill="rgba(158,196,168,.055)" stroke="rgba(158,196,168,.30)" stroke-width="1.4"/><circle cx="1177" cy="394" r="11.5" fill="rgba(158,196,168,.055)" stroke="rgba(158,196,168,.30)" stroke-width="1.4"/><circle cx="772" cy="472" r="11.5" fill="rgba(158,196,168,.055)" stroke="rgba(158,196,168,.30)" stroke-width="1.4"/><circle cx="862" cy="472" r="11.5" fill="rgba(158,196,168,.055)" stroke="rgba(158,196,168,.30)" stroke-width="1.4"/><circle cx="952" cy="472" r="11.5" fill="rgba(158,196,168,.055)" stroke="rgba(158,196,168,.30)" stroke-width="1.4"/><circle cx="1042" cy="472" r="11.5" fill="rgba(158,196,168,.055)" stroke="rgba(158,196,168,.30)" stroke-width="1.4"/><circle cx="1132" cy="472" r="11.5" fill="rgba(158,196,168,.055)" stroke="rgba(158,196,168,.30)" stroke-width="1.4"/><circle cx="12.2" cy="-13.3" r="7.360420027864166" fill="rgba(158,196,168,.055)" stroke="rgba(158,196,168,.30)" stroke-width="1.4"/><circle cx="176.7" cy="-46.6" r="7.973118505207822" fill="rgba(158,196,168,.055)" stroke="rgba(158,196,168,.30)" stroke-width="1.4"/><circle cx="344.1" cy="-59.8" r="8.906118954415433" fill="rgba(158,196,168,.055)" stroke="rgba(158,196,168,.30)" stroke-width="1.4"/><circle cx="-77.3" cy="87.2" r="8.865133316372521" fill="rgba(158,196,168,.055)" stroke="rgba(158,196,168,.30)" stroke-width="1.4"/><circle cx="-77.7" cy="250.5" r="9.35967287584208" fill="rgba(158,196,168,.055)" stroke="rgba(158,196,168,.30)" stroke-width="1.4"/><circle cx="-81.5" cy="413.8" r="7.319898942369036" fill="rgba(158,196,168,.055)" stroke="rgba(158,196,168,.30)" stroke-width="1.4"/><circle cx="-54.2" cy="560.5" r="8.977513483259827" fill="rgba(158,196,168,.055)" stroke="rgba(158,196,168,.30)" stroke-width="1.4"/><circle cx="68" cy="754.4" r="7.956960968323983" fill="rgba(158,196,168,.055)" stroke="rgba(158,196,168,.30)" stroke-width="1.4"/><circle cx="14" cy="1340.9" r="8.188139465171844" fill="rgba(158,196,168,.055)" stroke="rgba(158,196,168,.30)" stroke-width="1.4"/><circle cx="-14.3" cy="1520.1" r="10.169503068202175" fill="rgba(158,196,168,.055)" stroke="rgba(158,196,168,.30)" stroke-width="1.4"/><circle cx="-71.2" cy="1692.6" r="10.420837130630389" fill="rgba(158,196,168,.055)" stroke="rgba(158,196,168,.30)" stroke-width="1.4"/><circle cx="423.6" cy="-49.2" r="8.046413748990744" fill="rgba(158,196,168,.055)" stroke="rgba(158,196,168,.30)" stroke-width="1.4"/><circle cx="623.4" cy="-15.8" r="7.671776723698713" fill="rgba(158,196,168,.055)" stroke="rgba(158,196,168,.30)" stroke-width="1.4"/><circle cx="821" cy="29" r="9.97725250502117" fill="rgba(158,196,168,.055)" stroke="rgba(158,196,168,.30)" stroke-width="1.4"/><circle cx="356.5" cy="49.9" r="8.132831814233214" fill="rgba(158,196,168,.055)" stroke="rgba(158,196,168,.30)" stroke-width="1.4"/><circle cx="364" cy="228.3" r="9.701824444928207" fill="rgba(158,196,168,.055)" stroke="rgba(158,196,168,.30)" stroke-width="1.4"/><circle cx="359.8" cy="406.9" r="7.16043202788569" fill="rgba(158,196,168,.055)" stroke="rgba(158,196,168,.30)" stroke-width="1.4"/><circle cx="409.1" cy="612.4" r="7.185034572496079" fill="rgba(158,196,168,.055)" stroke="rgba(158,196,168,.30)" stroke-width="1.4"/><circle cx="467.2" cy="767.8" r="9.49802194070071" fill="rgba(158,196,168,.055)" stroke="rgba(158,196,168,.30)" stroke-width="1.4"/><circle cx="618.6" cy="898.3" r="9.962820060783997" fill="rgba(158,196,168,.055)" stroke="rgba(158,196,168,.30)" stroke-width="1.4"/><circle cx="777.5" cy="901.3" r="10.387914387858473" fill="rgba(158,196,168,.055)" stroke="rgba(158,196,168,.30)" stroke-width="1.4"/><circle cx="388.4" cy="1296.7" r="7.4475339212222025" fill="rgba(158,196,168,.055)" stroke="rgba(158,196,168,.30)" stroke-width="1.4"/><circle cx="349.6" cy="1470.3" r="9.726460291538388" fill="rgba(158,196,168,.055)" stroke="rgba(158,196,168,.30)" stroke-width="1.4"/><circle cx="875.8" cy="143.1" r="9.685838839621283" fill="rgba(158,196,168,.055)" stroke="rgba(158,196,168,.30)" stroke-width="1.4"/><circle cx="866.3" cy="328.5" r="9.220758521230891" fill="rgba(158,196,168,.055)" stroke="rgba(158,196,168,.30)" stroke-width="1.4"/><circle cx="995.4" cy="430.8" r="7.614455868024379" fill="rgba(158,196,168,.055)" stroke="rgba(158,196,168,.30)" stroke-width="1.4"/><circle cx="1152.9" cy="399.8" r="7.979961184435524" fill="rgba(158,196,168,.055)" stroke="rgba(158,196,168,.30)" stroke-width="1.4"/><circle cx="1309.9" cy="366.7" r="9.716760445619002" fill="rgba(158,196,168,.055)" stroke="rgba(158,196,168,.30)" stroke-width="1.4"/><circle cx="884.2" cy="542.3" r="7.6983511368744075" fill="rgba(158,196,168,.055)" stroke="rgba(158,196,168,.30)" stroke-width="1.4"/><circle cx="894.3" cy="693.8" r="7.252343778149225" fill="rgba(158,196,168,.055)" stroke="rgba(158,196,168,.30)" stroke-width="1.4"/><circle cx="914" cy="844.3" r="8.853561743395403" fill="rgba(158,196,168,.055)" stroke="rgba(158,196,168,.30)" stroke-width="1.4"/><circle cx="974.2" cy="931" r="7.9021367081440985" fill="rgba(158,196,168,.055)" stroke="rgba(158,196,168,.30)" stroke-width="1.4"/><circle cx="1139.8" cy="934.8" r="7.4303614605451" fill="rgba(158,196,168,.055)" stroke="rgba(158,196,168,.30)" stroke-width="1.4"/><circle cx="1303.9" cy="912.6" r="10.236351737985387" fill="rgba(158,196,168,.055)" stroke="rgba(158,196,168,.30)" stroke-width="1.4"/><circle cx="937.4" cy="1020.8" r="10.490036634262651" fill="rgba(158,196,168,.055)" stroke="rgba(158,196,168,.30)" stroke-width="1.4"/><circle cx="945.7" cy="1243.3" r="10.05488394445274" fill="rgba(158,196,168,.055)" stroke="rgba(158,196,168,.30)" stroke-width="1.4"/><circle cx="1011.5" cy="1336.8" r="9.775569031829946" fill="rgba(158,196,168,.055)" stroke="rgba(158,196,168,.30)" stroke-width="1.4"/><circle cx="1210.3" cy="1298.3" r="8.36894464539364" fill="rgba(158,196,168,.055)" stroke="rgba(158,196,168,.30)" stroke-width="1.4"/><circle cx="944.8" cy="1469.7" r="10.29003264172934" fill="rgba(158,196,168,.055)" stroke="rgba(158,196,168,.30)" stroke-width="1.4"/><circle cx="909.3" cy="1689.5" r="7.909212434547953" fill="rgba(158,196,168,.055)" stroke="rgba(158,196,168,.30)" stroke-width="1.4"/><circle cx="1400.6" cy="-55.9" r="8.538746930775233" fill="rgba(158,196,168,.055)" stroke="rgba(158,196,168,.30)" stroke-width="1.4"/><circle cx="1570.5" cy="-8.2" r="8.061186549020931" fill="rgba(158,196,168,.055)" stroke="rgba(158,196,168,.30)" stroke-width="1.4"/><circle cx="1400.4" cy="408.2" r="8.52636077243369" fill="rgba(158,196,168,.055)" stroke="rgba(158,196,168,.30)" stroke-width="1.4"/><circle cx="1574.8" cy="492.1" r="9.490973094012588" fill="rgba(158,196,168,.055)" stroke="rgba(158,196,168,.30)" stroke-width="1.4"/><circle cx="1410.6" cy="885.6" r="9.736477573984303" fill="rgba(158,196,168,.055)" stroke="rgba(158,196,168,.30)" stroke-width="1.4"/><circle cx="1560.2" cy="838" r="8.160074126208201" fill="rgba(158,196,168,.055)" stroke="rgba(158,196,168,.30)" stroke-width="1.4"/><circle cx="1711.6" cy="796.5" r="9.211164610809647" fill="rgba(158,196,168,.055)" stroke="rgba(158,196,168,.30)" stroke-width="1.4"/><circle cx="1357.2" cy="1287.7" r="8.552501340396702" fill="rgba(158,196,168,.055)" stroke="rgba(158,196,168,.30)" stroke-width="1.4"/><circle cx="1540" cy="1271.2" r="9.119861725834198" fill="rgba(158,196,168,.055)" stroke="rgba(158,196,168,.30)" stroke-width="1.4"/><circle cx="1721.6" cy="1244.7" r="7.165432073874399" fill="rgba(158,196,168,.055)" stroke="rgba(158,196,168,.30)" stroke-width="1.4"/><rect x="705.5" y="790.5" width="86" height="52" transform="rotate(-8 705.5 790.5)" fill="rgba(206,148,138,.13)" stroke="rgba(214,168,158,.34)" stroke-width="1.8"/><rect x="809.5" y="824.5" width="52" height="40" transform="rotate(-8 809.5 824.5)" fill="rgba(200,206,220,.07)" stroke="rgba(200,206,220,.26)" stroke-width="1.6"/><rect x="677.5" y="862.5" width="60" height="34" transform="rotate(-8 677.5 862.5)" fill="rgba(200,206,220,.07)" stroke="rgba(200,206,220,.26)" stroke-width="1.6"/></g></defs><use href="#k" x="-1700" y="-1700"/><use href="#k" x="-1700" y="0"/><use href="#k" x="-1700" y="1700"/><use href="#k" x="0" y="-1700"/><use href="#k" x="0" y="0"/><use href="#k" x="0" y="1700"/><use href="#k" x="1700" y="-1700"/><use href="#k" x="1700" y="0"/><use href="#k" x="1700" y="1700"/></svg>